<?xml version="1.0" encoding="UTF-8"?>
<svg id="Layer_1" data-name="Layer 1" xmlns="http://www.w3.org/2000/svg" viewBox="0 0 1696.56 545.32">
  <defs>
    <style>
      .cls-1 {
        fill: #53fc18;
        fill-rule: evenodd;
      }
    </style>
  </defs>
  <path class="cls-1" d="M0,0h181.77v121.18h60.59v-60.59h60.59V0h181.77v181.77h-60.59v60.59h-60.59v60.59h60.59v60.59h60.59v181.77h-181.77v-60.59h-60.59v-60.59h-60.59v121.18H0V0ZM1211.83,0h181.77v121.18h60.59v-60.59h60.59V0h181.77v181.77h-60.59v60.59h-60.59v60.59h60.59v60.59h60.59v181.77h-181.77v-60.59h-60.59v-60.59h-60.59v121.18h-181.77V0ZM545.32,0h181.77v545.32h-181.77V0ZM969.46,0h-121.18v60.59h-60.59v424.14h60.59v60.59h302.96v-181.77h-181.77v-181.77h181.77V0h-181.77Z"/>
</svg>